<svg xmlns="http://www.w3.org/2000/svg" width="42.667" height="42.667" version="1.0" viewBox="0 0 32 32"><path fill="#fff" d="M9.2 6.6C3.4 11.8 1.8 14 3.9 14c.5 0 3.1-2 5.9-4.5C12.5 7 15.3 5 16 5c.7 0 3.5 2 6.2 4.5 4.9 4.4 6.8 5.4 6.8 3.6C29 12.1 17.1 1 16 1c-.4 0-3.4 2.5-6.8 5.6zM12 22v6h3.5c2.1 0 4.8.9 6.5 2.2 2.5 1.8 3.3 2 5.5 1 3.8-1.8 5.2-5.5 3.1-8.7-2-3-3.7-3.2-6.1-.5-1.3 1.4-1.5 2.4-.8 3.1.7.7 1.4.5 2.3-.6.7-.8 1.9-1.5 2.8-1.5 1.1 0 .8.8-1.3 3-2.6 2.8-3 2.9-4.6 1.4-1-.9-2.3-1.3-2.9-.9-.7.4-.8-1.1-.4-4.9l.7-5.6H12v6z"/><style>
  path {fill:#000;}
  @media (prefers-color-scheme: dark) {
    path {fill: #fff;}
  }
</style></svg>