<?xml version="1.0" encoding="utf-8" ?>
<svg xmlns="http://www.w3.org/2000/svg" xmlns:xlink="http://www.w3.org/1999/xlink" width="1024" height="1024">
	<path fill="#4186B6" transform="scale(2 2)" d="M256.444 101.643C253.519 101.706 218.853 122.666 214.067 125.424C197.897 134.742 181.506 143.629 165.25 152.778C136.392 169.021 107.318 185.641 78.6748 202.219C73.2563 205.356 68.052 209.278 62.1789 211.514C41.5289 219.375 20.2489 200.08 25.4455 178.127C27.9132 167.703 36.0001 162.742 44.5556 157.738C107.991 120.63 171.52 83.6324 235.475 47.4273C242.216 43.611 249.036 40.0118 255.641 35.9558L256.588 36.4533C269.759 43.788 282.754 51.4731 295.833 58.9724C352.043 91.2012 408.323 123.281 464.389 155.762C468.725 158.274 473.503 160.684 477.469 163.74C501.282 182.094 480.112 222.586 450.343 211.198C446.119 209.582 442.158 207.264 438.206 205.083C416.938 193.346 395.98 180.969 374.942 168.828C344.796 151.432 314.332 134.24 284.056 117.011C274.904 111.803 265.516 106.989 256.444 101.643Z"/>
	<path fill="#4186B6" transform="scale(2 2)" d="M209.736 471.265C205.285 471.011 200.802 471.117 196.344 471.116C162.128 471.108 127.912 471.126 93.6968 471.118C88.5503 471.117 83.2147 471.351 78.125 470.508C61.0736 467.684 47.623 451.605 45.9 434.739C45.4214 430.055 45.4955 425.328 45.4916 420.626C45.4585 380.884 45.4951 341.143 45.4957 301.401C45.4958 294.28 44.8412 286.683 45.8277 279.63C48.685 259.201 64.3596 252.011 80.4706 242.659C126.338 216.033 172.151 189.275 218.201 162.966C229.39 156.573 240.438 148.204 253.634 146.846L254.193 146.803C266.471 146.076 276.335 152.958 286.356 158.938C337.43 189.415 389.846 217.564 441.043 247.834C462.005 260.227 466.577 269.035 466.561 292.112C466.535 332.211 466.562 372.309 466.561 412.408C466.56 420.039 467.119 428.266 465.875 435.804C463.247 451.734 451.74 466.318 435.616 470.211C430.035 471.558 423.781 471.116 418.068 471.118C391.017 471.131 363.966 471.119 336.915 471.115C325.49 471.114 313.992 470.838 302.576 471.242C302.279 463.43 302.532 455.51 302.526 447.688C302.512 428.946 300.107 405.026 312.306 389.375C315.459 385.329 319.308 381.863 322.807 378.125C376.218 321.067 338.466 223.181 258.48 220.419L258.217 220.414C224.67 220.072 195.222 236.24 178.264 264.849C157.54 299.811 158.371 340.943 184.798 373.325C193.536 384.032 203.229 389.713 207.424 404C211.601 418.223 209.763 454.603 209.736 471.265Z"/>
	<path fill="#4186B6" transform="scale(2 2)" d="M231.666 381.321C198.072 371.028 179.214 331.584 187.334 298.017C194.896 266.756 223.578 246.165 255.092 244.608C284.27 243.375 311.959 263.785 322.192 290.6C336.053 326.922 316.73 367.217 280.646 380.657L280.64 471.575C273.719 470.403 264.027 470.871 256.998 471.337L231.503 471.313L231.666 381.321Z"/>
</svg>
